<svg width="50" height="50" viewBox="0 0 50 50" fill="none" xmlns="http://www.w3.org/2000/svg">
<g clip-path="url(#clip0_2_14)">
<path fill-rule="evenodd" clip-rule="evenodd" d="M25 3.21876C12.3854 3.21876 2.17292 13.3792 2.17292 25.8917C2.17292 35.0792 7.67917 42.9854 15.6042 46.5417C16.4333 46.9146 17.2437 46.7667 17.8771 46.2917C18.2273 46.0189 18.5097 45.6688 18.702 45.2686C18.8942 44.8685 18.9913 44.4293 18.9854 43.9854V42.7979L16.1583 42.4146C16.1374 42.4118 16.1166 42.4083 16.0958 42.4042C14.5375 42.1 13.4854 41.5521 12.7146 40.7625C12.0667 40.0979 11.6708 39.3021 11.3354 38.6271L11.2188 38.3917C10.9087 37.745 10.5702 37.1125 10.2042 36.4958C9.92292 36.05 9.70417 35.8208 9.4875 35.6771C8.9375 35.3125 8.40833 34.6938 8.40833 33.9208C8.40645 33.6984 8.45408 33.4783 8.54777 33.2765C8.64145 33.0747 8.77885 32.8963 8.95 32.7542C9.27303 32.4984 9.67562 32.3642 10.0875 32.375C10.55 32.375 10.9854 32.5167 11.3479 32.6792C11.7188 32.8458 12.0875 33.0667 12.4312 33.2958C13.2687 33.8542 14.0937 34.5146 14.7917 35.3292C15.5187 36.175 16.0333 36.7125 16.8083 36.8229C17.4458 36.9146 18.0958 36.9167 18.6021 36.8938C18.6724 36.4929 18.7885 36.1015 18.9479 35.7271C18.3296 35.5828 17.7197 35.4048 17.1208 35.1938C15.7583 34.7104 14.2396 33.9583 13.2187 32.8188C12.0979 31.5646 11.4042 30.4458 11.0167 29.1375C10.6396 27.8625 10.5771 26.4813 10.5771 24.7813C10.5771 22.1771 11.7042 19.9833 12.55 18.8188C12.225 17.7992 11.9915 16.7527 11.8521 15.6917C11.7598 15.0226 11.7605 14.3439 11.8542 13.675C11.9583 13.0646 12.2187 12.3146 12.9042 11.8625C13.5646 11.4229 14.3396 11.4417 14.9437 11.5542C15.5708 11.6729 16.2229 11.9333 16.8229 12.2313C17.8 12.7146 18.7708 13.3604 19.4979 13.9083C20.7521 13.5396 22.9708 13.0646 24.9771 13.0208H25.0229C27.0312 13.0646 29.15 13.5396 30.3729 13.9063C31.1021 13.3604 32.0708 12.7125 33.0458 12.2313C33.6458 11.9333 34.2958 11.6729 34.925 11.5542C35.5292 11.4417 36.3042 11.4229 36.9667 11.8604C37.65 12.3146 37.9125 13.0646 38.0146 13.675C38.1208 14.3104 38.0958 15.0208 38.0146 15.6917C37.8758 16.7526 37.643 17.7991 37.3187 18.8188C38.1646 19.9854 39.2917 22.1792 39.2917 24.7813C39.2917 26.4813 39.2292 27.8625 38.8542 29.1354C38.4646 30.4479 37.7708 31.5646 36.65 32.8188C35.6292 33.9583 34.1104 34.7104 32.7479 35.1938C32.0247 35.448 31.2856 35.6546 30.5354 35.8125C30.7917 36.5875 30.8833 37.2146 30.8833 37.575V44.0125C30.8833 44.9917 31.3396 45.8271 31.9875 46.3146C32.6167 46.7917 33.425 46.9396 34.2542 46.5771C42.2542 43.0521 47.825 35.125 47.825 25.8896C47.825 13.3792 37.6167 3.21876 25 3.21876ZM19.7417 38.9792C19.2 39.0563 19.7396 38.9792 19.7396 38.9792H19.7333L19.7167 38.9833L19.6562 38.9917C19.3468 39.028 19.0362 39.0537 18.725 39.0688C17.9835 39.1074 17.2401 39.0774 16.5042 38.9792C14.8562 38.7458 13.8542 37.5792 13.2063 36.8208L13.1437 36.75C12.9319 36.5043 12.7043 36.2725 12.4625 36.0563C12.6771 36.4521 12.9 36.8938 13.1396 37.3688L13.1604 37.4104L13.2667 37.6271C13.6312 38.3521 13.8708 38.8354 14.2687 39.2396C14.6562 39.6354 15.2604 40.0188 16.4812 40.2604L20.2188 40.7667C20.4798 40.802 20.7191 40.9309 20.8923 41.1293C21.0655 41.3278 21.1608 41.5824 21.1604 41.8458V43.9854C21.1604 45.6521 20.3792 47.1375 19.1812 48.0375C18.5523 48.5181 17.8041 48.8178 17.0174 48.9045C16.2306 48.9911 15.4351 48.8614 14.7167 48.5292C6.04583 44.6396 0 35.9792 0 25.8917C0 12.1583 11.2021 1.04167 25 1.04167C38.7979 1.04167 50 12.1583 50 25.8917C50 36.0313 43.8771 44.7146 35.1313 48.5708C34.4122 48.8967 33.6181 49.021 32.8339 48.9303C32.0497 48.8397 31.3049 48.5376 30.6792 48.0563C30.0605 47.5799 29.5605 46.9668 29.2186 46.2648C28.8767 45.5628 28.702 44.7912 28.7083 44.0104V37.5729C28.7083 37.4271 28.6062 36.5854 28.0375 35.4542C27.959 35.2973 27.9194 35.1238 27.9222 34.9484C27.925 34.7731 27.9699 34.6009 28.0533 34.4466C28.1367 34.2923 28.2561 34.1603 28.4013 34.0619C28.5465 33.9635 28.7133 33.9015 28.8875 33.8813C29.9556 33.7474 31.0061 33.4987 32.0208 33.1396C33.2583 32.7021 34.3687 32.1021 35.0292 31.3646C36.0104 30.2688 36.5 29.4271 36.7687 28.5167C37.0479 27.5729 37.1187 26.475 37.1187 24.7813C37.1187 22.4042 35.8687 20.4063 35.2937 19.7625C35.1632 19.617 35.0742 19.4391 35.0361 19.2474C34.998 19.0557 35.0121 18.8573 35.0771 18.6729C35.4474 17.6233 35.7092 16.5384 35.8583 15.4354C35.925 14.8625 35.9292 14.3833 35.8708 14.0375C35.8578 13.9111 35.8195 13.7885 35.7583 13.6771C35.6149 13.6523 35.4678 13.6587 35.3271 13.6958C34.9729 13.7625 34.5208 13.9292 34.0083 14.1833C32.9875 14.6875 31.925 15.4333 31.2667 15.9667C31.1215 16.0845 30.9483 16.1627 30.7639 16.1937C30.5796 16.2247 30.3903 16.2075 30.2146 16.1438C28.5278 15.592 26.7732 15.2744 25 15.2C22.9021 15.25 20.4812 15.8458 19.6542 16.1438C19.4784 16.2075 19.2892 16.2247 19.1048 16.1937C18.9205 16.1627 18.7473 16.0845 18.6021 15.9667C17.7507 15.2812 16.8321 14.6838 15.8604 14.1833C15.4432 13.9642 14.9991 13.8003 14.5396 13.6958C14.3995 13.659 14.2532 13.6526 14.1104 13.6771C14.0492 13.7885 14.0109 13.911 13.9979 14.0375C13.9396 14.3833 13.9437 14.8625 14.0104 15.4354C14.1606 16.5383 14.4223 17.623 14.7917 18.6729C14.9229 19.0479 14.8417 19.4646 14.575 19.7625C14 20.4063 12.75 22.4042 12.75 24.7813C12.75 26.4729 12.8208 27.5729 13.1 28.5167C13.3708 29.4271 13.8583 30.2667 14.8375 31.3646C15.5 32.1021 16.6083 32.7021 17.8479 33.1396C18.862 33.4985 19.9118 33.7471 20.9792 33.8813C21.1988 33.9048 21.406 33.9947 21.5732 34.1389C21.7405 34.2831 21.8599 34.4748 21.9155 34.6886C21.9712 34.9023 21.9604 35.1279 21.8847 35.3354C21.809 35.5429 21.6719 35.7224 21.4917 35.85C21.1479 36.0958 20.9208 36.5375 20.7937 37.0479C20.7281 37.3107 20.6891 37.5794 20.6771 37.85V37.8896C20.6797 38.1537 20.5863 38.4099 20.4143 38.6103C20.2422 38.8107 20.0032 38.9418 19.7417 38.9792Z" fill="#252525"/>
</g>
<defs>
<clipPath id="clip0_2_14">
<rect width="50" height="50" fill="white"/>
</clipPath>
</defs>
</svg>
