<svg width="50" height="50" viewBox="0 0 50 50" fill="none" xmlns="http://www.w3.org/2000/svg">
<path fill-rule="evenodd" clip-rule="evenodd" d="M15.5521 2.22083C17.9959 2.10833 18.775 2.08333 25 2.08333C31.225 2.08333 32.0042 2.11041 34.4459 2.22083C36.8875 2.33124 38.5542 2.72083 40.0125 3.28541C41.5396 3.86249 42.925 4.76458 44.0709 5.93124C45.2375 7.07499 46.1375 8.45833 46.7125 9.98749C47.2792 11.4458 47.6667 13.1125 47.7792 15.55C47.8917 17.9979 47.9167 18.7771 47.9167 25C47.9167 31.225 47.8896 32.0042 47.7792 34.4479C47.6688 36.8854 47.2792 38.5521 46.7125 40.0104C46.1375 41.5398 45.236 42.9254 44.0709 44.0708C42.925 45.2375 41.5396 46.1375 40.0125 46.7125C38.5542 47.2792 36.8875 47.6667 34.45 47.7792C32.0042 47.8917 31.225 47.9167 25 47.9167C18.775 47.9167 17.9959 47.8896 15.5521 47.7792C13.1146 47.6687 11.448 47.2792 9.98962 46.7125C8.46029 46.1374 7.07467 45.2359 5.92921 44.0708C4.76333 42.9264 3.86111 41.5414 3.28546 40.0125C2.72087 38.5542 2.33337 36.8875 2.22087 34.45C2.10837 32.0021 2.08337 31.2229 2.08337 25C2.08337 18.775 2.11046 17.9958 2.22087 15.5542C2.33129 13.1125 2.72087 11.4458 3.28546 9.98749C3.86196 8.4585 4.76487 7.07356 5.93129 5.92916C7.07512 4.76354 8.45936 3.86134 9.98754 3.28541C11.4459 2.72083 13.1125 2.33333 15.55 2.22083H15.5521ZM34.2605 6.34583C31.8438 6.23541 31.1188 6.21249 25 6.21249C18.8813 6.21249 18.1563 6.23541 15.7396 6.34583C13.5042 6.44791 12.2917 6.82083 11.4834 7.13541C10.4146 7.55208 9.65004 8.04583 8.84796 8.84791C8.08763 9.5876 7.5025 10.4881 7.13546 11.4833C6.82087 12.2917 6.44796 13.5042 6.34587 15.7396C6.23546 18.1562 6.21254 18.8812 6.21254 25C6.21254 31.1187 6.23546 31.8437 6.34587 34.2604C6.44796 36.4958 6.82087 37.7083 7.13546 38.5167C7.50212 39.5104 8.08754 40.4125 8.84796 41.1521C9.58754 41.9125 10.4896 42.4979 11.4834 42.8646C12.2917 43.1792 13.5042 43.5521 15.7396 43.6542C18.1563 43.7646 18.8792 43.7875 25 43.7875C31.1209 43.7875 31.8438 43.7646 34.2605 43.6542C36.4959 43.5521 37.7084 43.1792 38.5167 42.8646C39.5855 42.4479 40.35 41.9542 41.1521 41.1521C41.9125 40.4125 42.498 39.5104 42.8646 38.5167C43.1792 37.7083 43.5521 36.4958 43.6542 34.2604C43.7646 31.8437 43.7875 31.1187 43.7875 25C43.7875 18.8812 43.7646 18.1562 43.6542 15.7396C43.5521 13.5042 43.1792 12.2917 42.8646 11.4833C42.448 10.4146 41.9542 9.64999 41.1521 8.84791C40.4124 8.08764 39.5119 7.50252 38.5167 7.13541C37.7084 6.82083 36.4959 6.44791 34.2605 6.34583ZM22.073 32.0646C23.7077 32.7451 25.5279 32.8369 27.2228 32.3244C28.9177 31.8119 30.3821 30.7269 31.3659 29.2547C32.3497 27.7824 32.7918 26.0143 32.6168 24.2523C32.4418 22.4903 31.6605 20.8437 30.4063 19.5937C29.6068 18.7947 28.6401 18.1829 27.5757 17.8024C26.5114 17.4218 25.3759 17.282 24.2511 17.3929C23.1262 17.5039 22.0399 17.8629 21.0705 18.444C20.101 19.0252 19.2724 19.814 18.6444 20.7539C18.0164 21.6937 17.6046 22.761 17.4386 23.8791C17.2726 24.9971 17.3566 26.1381 17.6845 27.2198C18.0124 28.3015 18.576 29.2971 19.3349 30.1348C20.0937 30.9726 21.0288 31.6316 22.073 32.0646ZM16.6709 16.6708C17.7647 15.577 19.0632 14.7094 20.4923 14.1174C21.9214 13.5255 23.4532 13.2208 25 13.2208C26.5469 13.2208 28.0786 13.5255 29.5078 14.1174C30.9369 14.7094 32.2354 15.577 33.3292 16.6708C34.423 17.7646 35.2907 19.0632 35.8826 20.4923C36.4746 21.9214 36.7793 23.4531 36.7793 25C36.7793 26.5469 36.4746 28.0786 35.8826 29.5077C35.2907 30.9368 34.423 32.2354 33.3292 33.3292C31.1202 35.5382 28.1241 36.7792 25 36.7792C21.876 36.7792 18.8799 35.5382 16.6709 33.3292C14.4618 31.1201 13.2208 28.124 13.2208 25C13.2208 21.8759 14.4618 18.8799 16.6709 16.6708ZM39.3917 14.975C39.6628 14.7193 39.8797 14.4118 40.0298 14.0708C40.1799 13.7297 40.2601 13.362 40.2655 12.9894C40.2709 12.6169 40.2015 12.247 40.0615 11.9017C39.9214 11.5564 39.7134 11.2427 39.45 10.9792C39.1865 10.7158 38.8728 10.5078 38.5275 10.3677C38.1822 10.2277 37.8123 10.1583 37.4398 10.1637C37.0672 10.1691 36.6995 10.2493 36.3584 10.3994C36.0174 10.5495 35.7099 10.7664 35.4542 11.0375C34.9569 11.5646 34.6847 12.2648 34.6953 12.9894C34.7058 13.714 34.9984 14.406 35.5108 14.9184C36.0232 15.4308 36.7152 15.7234 37.4398 15.734C38.1644 15.7445 38.8646 15.4723 39.3917 14.975Z" fill="#252525"/>
</svg>
