<svg width="50" height="50" viewBox="0 0 50 50" fill="none" xmlns="http://www.w3.org/2000/svg">
<path d="M41.9999 14.2499C35.9999 4.99994 23.7499 2.24994 14.2499 7.99994C4.99994 13.7499 1.99994 26.2499 7.99994 35.4999L8.49994 36.2499L6.49994 43.7499L13.9999 41.7499L14.7499 42.2499C17.9999 43.9999 21.4999 44.9999 24.9999 44.9999C28.7499 44.9999 32.4999 43.9999 35.7499 41.9999C44.9999 35.9999 47.7499 23.7499 41.9999 14.2499V14.2499ZM36.7499 33.4999C35.7499 34.9999 34.4999 35.9999 32.7499 36.2499C31.7499 36.2499 30.4999 36.7499 25.4999 34.7499C21.2499 32.7499 17.7499 29.4999 15.2499 25.7499C13.7499 23.9999 12.9999 21.7499 12.7499 19.4999C12.7499 17.4999 13.4999 15.7499 14.7499 14.4999C15.2499 13.9999 15.7499 13.7499 16.2499 13.7499H17.4999C17.9999 13.7499 18.4999 13.7499 18.7499 14.7499C19.2499 15.9999 20.4999 18.9999 20.4999 19.2499C20.7499 19.4999 20.7499 19.9999 20.4999 20.2499C20.7499 20.7499 20.4999 21.2499 20.2499 21.4999C19.9999 21.7499 19.7499 22.2499 19.4999 22.4999C18.9999 22.7499 18.7499 23.2499 18.9999 23.7499C19.9999 25.2499 21.2499 26.7499 22.4999 27.9999C23.9999 29.2499 25.4999 30.2499 27.2499 30.9999C27.7499 31.2499 28.2499 31.2499 28.4999 30.7499C28.7499 30.2499 29.9999 28.9999 30.4999 28.4999C30.9999 27.9999 31.2499 27.9999 31.7499 28.2499L35.7499 30.2499C36.2499 30.4999 36.7499 30.7499 36.9999 30.9999C37.2499 31.7499 37.2499 32.7499 36.7499 33.4999V33.4999Z" fill="black"/>
</svg>
