<svg width="50" height="50" viewBox="0 0 50 50" fill="none" xmlns="http://www.w3.org/2000/svg">
<g clip-path="url(#clip0_33_16)">
<path d="M50 11.3688V40.3459C50 42.2292 48.475 43.7542 46.5917 43.7542H38.6354V24.4375L25 34.6667L11.3646 24.4375V43.7563H3.40833C2.96057 43.7563 2.51719 43.668 2.10354 43.4966C1.68989 43.3252 1.31406 43.074 0.997541 42.7573C0.681021 42.4405 0.430009 42.0646 0.258846 41.6508C0.0876841 41.237 -0.000273058 40.7936 6.36774e-07 40.3459V11.3688C6.36774e-07 7.15419 4.81042 4.74794 8.18125 7.27711L11.3646 9.66669L25 19.8917L38.6354 9.66252L41.8187 7.27711C45.1875 4.75002 50 7.15419 50 11.3688Z" fill="black"/>
</g>
<defs>
<clipPath id="clip0_33_16">
<rect width="50" height="50" fill="white"/>
</clipPath>
</defs>
</svg>
